<svg width="80" height="80" viewBox="0 0 80 80" fill="none" xmlns="http://www.w3.org/2000/svg">
<rect width="80" height="80" rx="40" fill="#B5E2D1"/>
<path d="M47.8997 29.0987C47.5041 29.0987 47.1174 29.216 46.7885 29.4358C46.4596 29.6555 46.2033 29.9679 46.0519 30.3333C45.9005 30.6988 45.8609 31.1009 45.9381 31.4889C46.0153 31.8768 46.2058 32.2332 46.4855 32.5129C46.7652 32.7926 47.1215 32.9831 47.5095 33.0603C47.8975 33.1374 48.2996 33.0978 48.665 32.9465C49.0305 32.7951 49.3428 32.5387 49.5626 32.2098C49.7824 31.8809 49.8997 31.4943 49.8997 31.0987C49.8997 30.5683 49.689 30.0596 49.3139 29.6845C48.9388 29.3094 48.4301 29.0987 47.8997 29.0987ZM55.5663 33.132C55.5339 31.7492 55.2749 30.381 54.7997 29.082C54.3759 27.9706 53.7163 26.9642 52.8663 26.132C52.041 25.2777 51.0323 24.6223 49.9163 24.2154C48.6208 23.7256 47.2511 23.4607 45.8663 23.432C44.0997 23.332 43.533 23.332 38.9997 23.332C34.4663 23.332 33.8997 23.332 32.133 23.432C30.7483 23.4607 29.3786 23.7256 28.083 24.2154C26.9691 24.6264 25.9612 25.2813 25.133 26.132C24.2787 26.9573 23.6233 27.9661 23.2163 29.082C22.7266 30.3776 22.4617 31.7473 22.433 33.132C22.333 34.8987 22.333 35.4654 22.333 39.9987C22.333 44.532 22.333 45.0987 22.433 46.8654C22.4617 48.2501 22.7266 49.6198 23.2163 50.9154C23.6233 52.0313 24.2787 53.0401 25.133 53.8654C25.9612 54.7161 26.9691 55.3709 28.083 55.782C29.3786 56.2718 30.7483 56.5367 32.133 56.5654C33.8997 56.6654 34.4663 56.6654 38.9997 56.6654C43.533 56.6654 44.0997 56.6654 45.8663 56.5654C47.2511 56.5367 48.6208 56.2718 49.9163 55.782C51.0323 55.3751 52.041 54.7197 52.8663 53.8654C53.7201 53.0363 54.3802 52.029 54.7997 50.9154C55.2749 49.6164 55.5339 48.2482 55.5663 46.8654C55.5663 45.0987 55.6663 44.532 55.6663 39.9987C55.6663 35.4654 55.6663 34.8987 55.5663 33.132ZM52.5663 46.6654C52.5542 47.7233 52.3626 48.7715 51.9997 49.7654C51.7336 50.4907 51.3061 51.1461 50.7497 51.682C50.2091 52.2329 49.555 52.6594 48.833 52.932C47.8392 53.295 46.791 53.4866 45.733 53.4987C44.0663 53.582 43.4497 53.5987 39.0663 53.5987C34.683 53.5987 34.0663 53.5987 32.3997 53.4987C31.3012 53.5193 30.2073 53.3501 29.1663 52.9987C28.476 52.7122 27.8519 52.2867 27.333 51.7487C26.7798 51.2133 26.3577 50.5573 26.0997 49.832C25.6928 48.8239 25.4671 47.7519 25.433 46.6654C25.433 44.9987 25.333 44.382 25.333 39.9987C25.333 35.6154 25.333 34.9987 25.433 33.332C25.4405 32.2505 25.6379 31.1786 26.0163 30.1654C26.3098 29.4619 26.7601 28.8348 27.333 28.332C27.8394 27.759 28.4652 27.3039 29.1663 26.9987C30.1823 26.6321 31.253 26.4405 32.333 26.432C33.9997 26.432 34.6163 26.332 38.9997 26.332C43.383 26.332 43.9997 26.332 45.6663 26.432C46.7243 26.4442 47.7725 26.6358 48.7663 26.9987C49.5237 27.2798 50.2035 27.7368 50.7497 28.332C51.2958 28.844 51.7226 29.4699 51.9997 30.1654C52.3701 31.1803 52.5618 32.2517 52.5663 33.332C52.6497 34.9987 52.6663 35.6154 52.6663 39.9987C52.6663 44.382 52.6497 44.9987 52.5663 46.6654ZM38.9997 31.4487C37.3094 31.452 35.6579 31.9562 34.2541 32.8977C32.8503 33.8392 31.757 35.1757 31.1124 36.7383C30.4678 38.3009 30.3009 40.0195 30.6327 41.6769C30.9644 43.3344 31.7801 44.8563 32.9765 46.0503C34.1729 47.2444 35.6964 48.0571 37.3544 48.3856C39.0125 48.7142 40.7308 48.5439 42.2921 47.8963C43.8535 47.2486 45.1878 46.1528 46.1266 44.7471C47.0653 43.3414 47.5663 41.689 47.5663 39.9987C47.5685 38.8739 47.3483 37.7597 46.9184 36.7203C46.4885 35.6809 45.8573 34.7367 45.0611 33.9421C44.265 33.1475 43.3196 32.5182 42.2793 32.0902C41.2391 31.6623 40.1245 31.4443 38.9997 31.4487ZM38.9997 45.5487C37.902 45.5487 36.829 45.2232 35.9163 44.6134C35.0036 44.0035 34.2922 43.1367 33.8721 42.1226C33.4521 41.1085 33.3422 39.9925 33.5563 38.9159C33.7705 37.8394 34.299 36.8504 35.0752 36.0743C35.8514 35.2981 36.8403 34.7695 37.9169 34.5553C38.9935 34.3412 40.1094 34.4511 41.1236 34.8712C42.1377 35.2912 43.0045 36.0026 43.6143 36.9153C44.2242 37.828 44.5497 38.901 44.5497 39.9987C44.5497 40.7275 44.4061 41.4492 44.1272 42.1226C43.8483 42.7959 43.4395 43.4078 42.9241 43.9231C42.4088 44.4385 41.7969 44.8473 41.1236 45.1262C40.4502 45.4051 39.7285 45.5487 38.9997 45.5487Z" fill="#074139"/>
</svg>
