<svg width="238" height="32" viewBox="0 0 238 32" fill="none" xmlns="http://www.w3.org/2000/svg">
<mask id="path-1-inside-1_856_3467" fill="white">
<path d="M19.6524 0C31.6241 0 34.2844 0.320699 36.4727 2.10724C38.6611 3.89377 39.3048 6.96301 39.3048 15.7126C39.3048 24.508 38.6611 27.5772 36.4727 29.3638C34.2844 31.1503 31.5811 31.471 19.7382 31.471C7.68073 31.471 5.02036 31.1503 2.832 29.3638C0.600731 27.5314 0 24.508 0 15.5293C0 7.00879 0.643636 3.89377 2.832 2.10724C5.02036 0.320699 7.68073 0 19.6524 0ZM19.6524 7.925C11.0705 7.925 10.2553 8.06246 9.39711 9.849C8.88223 10.9026 8.71058 12.6434 8.71058 16.5372C8.71058 20.3393 8.96796 21.5762 9.9978 22.4465C11.1563 23.4085 12.5295 23.546 19.7382 23.546C26.7324 23.546 28.1483 23.3628 29.3069 22.4465C30.2939 21.622 30.5942 20.2935 30.5942 16.583C30.5942 12.0478 30.3367 10.3071 29.5644 9.29928C28.5775 8.06247 27.6335 7.925 19.6524 7.925ZM42.7557 31.0129V0.458054H63.3092C70.0889 0.503941 70.0889 0.503943 71.3761 0.595514C76.0532 0.961999 77.5979 2.886 77.5979 8.42895C77.5979 12.7808 76.6111 14.5673 73.7361 15.4377C77.5121 16.1249 78.6706 17.9115 78.6706 22.813C78.6706 27.165 77.5979 29.4096 75.0663 30.3258C73.4358 30.9213 72.9638 30.9671 63.3522 31.0129H42.7557ZM51.0372 12.506H63.3092C66.3986 12.506 67.643 12.4143 68.2008 12.1395C68.8445 11.8646 69.1449 11.0858 69.1449 9.98646C69.1449 8.70376 68.7587 8.01668 67.8576 7.78755C67.3856 7.69598 67.2568 7.69598 63.3092 7.65019H51.0372V12.506ZM51.0372 23.6835H63.3522C68.5442 23.6376 68.5442 23.6376 69.1877 23.317C69.9172 22.9963 70.2176 22.3092 70.2176 21.0265C70.2176 19.6064 69.8314 18.965 68.8445 18.736C68.4154 18.6444 68.4154 18.6444 63.3522 18.5985H51.0372V23.6835ZM81.7259 31.0129V0.458054H101.335C106.742 0.458054 107.515 0.503942 109.102 0.73297C114.508 1.6033 116.053 4.07702 116.053 11.9105C116.053 18.6902 114.895 21.3472 111.462 22.6756C109.531 23.3627 107.6 23.546 101.421 23.546H90.4363V31.0129H81.7259ZM90.4363 15.8958H101.335C105.368 15.85 105.54 15.85 106.27 15.392C107.085 14.8422 107.343 14.0177 107.343 11.9105C107.343 9.71155 106.956 8.79543 105.841 8.38306C105.24 8.15403 105.155 8.15404 101.335 8.10825H90.4363V15.8958ZM148.073 31.0129L145.628 25.8365H126.705L124.259 31.0129H114.304L129.451 0.458054H143.011L157.986 31.0129H148.073ZM142.581 19.1483L137.046 7.55852H135.329L129.794 19.1483H142.581ZM159.29 31.0129V0.458054H180.357C190.226 0.458054 190.226 0.458056 192.071 1.64918C194.26 3.06924 194.904 5.0848 194.904 10.3987C194.904 14.9338 194.474 16.6746 192.929 17.9115C192.114 18.5986 191.299 18.9192 189.583 19.1941C194.003 19.7438 194.775 21.1181 194.603 28.1727V31.0129H186.021V29.4095C186.021 25.9739 185.85 24.8745 185.164 24.0957C184.562 23.3628 183.919 23.2712 180.314 23.2712H168V31.0129H159.29ZM168 15.621H180.272C184.649 15.5293 184.649 15.5293 185.249 15.0713C185.936 14.6132 186.193 13.697 186.193 11.773C186.193 9.71155 185.85 8.84122 184.949 8.42895C184.348 8.15404 184.219 8.15404 180.272 8.10825H168V15.621ZM197.924 0.458054H206.634V11.544H211.398L222.726 0.274811H236.07L219.508 15.4377L237.443 31.0129H224.228L211.398 19.3315H206.634V31.0129H197.924V0.458054Z"/>
</mask>
<path d="M19.6524 0C31.6241 0 34.2844 0.320699 36.4727 2.10724C38.6611 3.89377 39.3048 6.96301 39.3048 15.7126C39.3048 24.508 38.6611 27.5772 36.4727 29.3638C34.2844 31.1503 31.5811 31.471 19.7382 31.471C7.68073 31.471 5.02036 31.1503 2.832 29.3638C0.600731 27.5314 0 24.508 0 15.5293C0 7.00879 0.643636 3.89377 2.832 2.10724C5.02036 0.320699 7.68073 0 19.6524 0ZM19.6524 7.925C11.0705 7.925 10.2553 8.06246 9.39711 9.849C8.88223 10.9026 8.71058 12.6434 8.71058 16.5372C8.71058 20.3393 8.96796 21.5762 9.9978 22.4465C11.1563 23.4085 12.5295 23.546 19.7382 23.546C26.7324 23.546 28.1483 23.3628 29.3069 22.4465C30.2939 21.622 30.5942 20.2935 30.5942 16.583C30.5942 12.0478 30.3367 10.3071 29.5644 9.29928C28.5775 8.06247 27.6335 7.925 19.6524 7.925ZM42.7557 31.0129V0.458054H63.3092C70.0889 0.503941 70.0889 0.503943 71.3761 0.595514C76.0532 0.961999 77.5979 2.886 77.5979 8.42895C77.5979 12.7808 76.6111 14.5673 73.7361 15.4377C77.5121 16.1249 78.6706 17.9115 78.6706 22.813C78.6706 27.165 77.5979 29.4096 75.0663 30.3258C73.4358 30.9213 72.9638 30.9671 63.3522 31.0129H42.7557ZM51.0372 12.506H63.3092C66.3986 12.506 67.643 12.4143 68.2008 12.1395C68.8445 11.8646 69.1449 11.0858 69.1449 9.98646C69.1449 8.70376 68.7587 8.01668 67.8576 7.78755C67.3856 7.69598 67.2568 7.69598 63.3092 7.65019H51.0372V12.506ZM51.0372 23.6835H63.3522C68.5442 23.6376 68.5442 23.6376 69.1877 23.317C69.9172 22.9963 70.2176 22.3092 70.2176 21.0265C70.2176 19.6064 69.8314 18.965 68.8445 18.736C68.4154 18.6444 68.4154 18.6444 63.3522 18.5985H51.0372V23.6835ZM81.7259 31.0129V0.458054H101.335C106.742 0.458054 107.515 0.503942 109.102 0.73297C114.508 1.6033 116.053 4.07702 116.053 11.9105C116.053 18.6902 114.895 21.3472 111.462 22.6756C109.531 23.3627 107.6 23.546 101.421 23.546H90.4363V31.0129H81.7259ZM90.4363 15.8958H101.335C105.368 15.85 105.54 15.85 106.27 15.392C107.085 14.8422 107.343 14.0177 107.343 11.9105C107.343 9.71155 106.956 8.79543 105.841 8.38306C105.24 8.15403 105.155 8.15404 101.335 8.10825H90.4363V15.8958ZM148.073 31.0129L145.628 25.8365H126.705L124.259 31.0129H114.304L129.451 0.458054H143.011L157.986 31.0129H148.073ZM142.581 19.1483L137.046 7.55852H135.329L129.794 19.1483H142.581ZM159.29 31.0129V0.458054H180.357C190.226 0.458054 190.226 0.458056 192.071 1.64918C194.26 3.06924 194.904 5.0848 194.904 10.3987C194.904 14.9338 194.474 16.6746 192.929 17.9115C192.114 18.5986 191.299 18.9192 189.583 19.1941C194.003 19.7438 194.775 21.1181 194.603 28.1727V31.0129H186.021V29.4095C186.021 25.9739 185.85 24.8745 185.164 24.0957C184.562 23.3628 183.919 23.2712 180.314 23.2712H168V31.0129H159.29ZM168 15.621H180.272C184.649 15.5293 184.649 15.5293 185.249 15.0713C185.936 14.6132 186.193 13.697 186.193 11.773C186.193 9.71155 185.85 8.84122 184.949 8.42895C184.348 8.15404 184.219 8.15404 180.272 8.10825H168V15.621ZM197.924 0.458054H206.634V11.544H211.398L222.726 0.274811H236.07L219.508 15.4377L237.443 31.0129H224.228L211.398 19.3315H206.634V31.0129H197.924V0.458054Z" fill="#074139" stroke="#074139" stroke-width="4" mask="url(#path-1-inside-1_856_3467)"/>
</svg>
