<svg width="80" height="80" viewBox="0 0 80 80" fill="none" xmlns="http://www.w3.org/2000/svg">
<rect width="80" height="80" rx="40" fill="#B5E2D1"/>
<path d="M47.6663 43.3346C47.333 43.168 45.1663 42.168 44.833 42.0013C44.4997 41.8346 44.1663 41.8346 43.833 42.168C43.4997 42.5013 42.833 43.5013 42.4997 43.8346C42.333 44.168 41.9997 44.168 41.6663 44.0013C40.4997 43.5013 39.333 42.8346 38.333 42.0013C37.4997 41.168 36.6663 40.168 35.9997 39.168C35.833 38.8346 35.9997 38.5013 36.1663 38.3346C36.333 38.168 36.4997 37.8346 36.833 37.668C36.9997 37.5013 37.1663 37.168 37.1663 37.0013C37.333 36.8346 37.333 36.5013 37.1663 36.3346C36.9997 36.168 36.1663 34.168 35.833 33.3346C35.6663 32.168 35.333 32.168 34.9997 32.168H34.1663C33.833 32.168 33.333 32.5013 33.1663 32.668C32.1663 33.668 31.6663 34.8346 31.6663 36.168C31.833 37.668 32.333 39.168 33.333 40.5013C35.1663 43.168 37.4997 45.3346 40.333 46.668C41.1663 47.0013 41.833 47.3346 42.6663 47.5013C43.4997 47.8346 44.333 47.8346 45.333 47.668C46.4997 47.5013 47.4997 46.668 48.1663 45.668C48.4997 45.0013 48.4997 44.3346 48.333 43.668L47.6663 43.3346ZM51.833 28.168C45.333 21.668 34.833 21.668 28.333 28.168C22.9997 33.5013 21.9997 41.668 25.6663 48.168L23.333 56.668L32.1663 54.3346C34.6663 55.668 37.333 56.3346 39.9997 56.3346C49.1663 56.3346 56.4997 49.0013 56.4997 39.8346C56.6663 35.5013 54.833 31.3346 51.833 28.168ZM47.333 51.5013C45.1663 52.8346 42.6663 53.668 39.9997 53.668C37.4997 53.668 35.1663 53.0013 32.9997 51.8346L32.4997 51.5013L27.333 52.8346L28.6663 47.8346L28.333 47.3346C24.333 40.668 26.333 32.3346 32.833 28.168C39.333 24.0013 47.6663 26.168 51.6663 32.5013C55.6663 39.0013 53.833 47.5013 47.333 51.5013Z" fill="#074139"/>
</svg>
