<svg width="48" height="48" viewBox="0 0 48 48" fill="none" xmlns="http://www.w3.org/2000/svg">
<rect width="48" height="48" rx="24" fill="white"/>
<path d="M21.0564 13.9743L22.0299 15.7187C22.9085 17.2929 22.5558 19.358 21.1721 20.7417C21.1721 20.7417 19.4939 22.4202 22.5368 25.4633C25.5788 28.5053 27.2584 26.828 27.2584 26.828C28.6421 25.4443 30.7072 25.0916 32.2814 25.9702L34.0258 26.9437C36.403 28.2703 36.6836 31.6039 34.5943 33.6934C33.3388 34.9489 31.8007 35.9258 30.1004 35.9902C27.2383 36.0988 22.3775 35.3744 17.5016 30.4985C12.6257 25.6226 11.9013 20.7619 12.0098 17.8997C12.0743 16.1994 13.0512 14.6614 14.3067 13.4059C16.3962 11.3164 19.7298 11.5972 21.0564 13.9743Z" fill="#1A817F"/>
</svg>
