<svg width="48" height="48" viewBox="0 0 48 48" fill="none" xmlns="http://www.w3.org/2000/svg">
<rect width="48" height="48" rx="24" fill="white"/>
<path d="M27.4919 12.1016C27.9775 11.8645 28.5679 12.0567 28.8106 12.5309L31.6952 18.1659C33.4685 18.2989 34.5812 18.6386 35.2993 19.5061C35.8699 20.1955 36.0545 21.0531 35.9866 22.2402H12.0134C11.9455 21.0531 12.1302 20.1955 12.7008 19.5061C13.4187 18.6386 14.5315 18.2989 16.3047 18.1659L19.1893 12.5309C19.4321 12.0567 20.0225 11.8645 20.508 12.1016C20.9935 12.3387 21.1903 12.9153 20.9476 13.3895L18.5429 18.087C19.1761 18.0802 19.8671 18.0802 20.6214 18.0802H27.3786C28.1329 18.0802 28.8238 18.0802 29.457 18.087L27.0524 13.3895C26.8095 12.9153 27.0064 12.3387 27.4919 12.1016Z" fill="#1A817F"/>
<path fill-rule="evenodd" clip-rule="evenodd" d="M12.933 27.3694C12.6617 26.1329 12.4295 25.0745 12.2646 24.1602H35.7355C35.5706 25.0745 35.3384 26.1328 35.0671 27.3692L34.5056 29.9294C33.8674 32.8382 33.5482 34.2926 32.4669 35.1464C31.3857 36.0002 29.8628 36.0002 26.817 36.0002H21.1831C18.1373 36.0002 16.6145 36.0002 15.5332 35.1464C14.4519 34.2926 14.1328 32.8382 13.4947 29.9294L12.933 27.3694ZM21.379 26.0802C20.8362 26.0802 20.3961 26.51 20.3961 27.0402C20.3961 27.5703 20.8362 28.0002 21.379 28.0002H26.621C27.1639 28.0002 27.6039 27.5703 27.6039 27.0402C27.6039 26.51 27.1639 26.0802 26.621 26.0802H21.379Z" fill="#1A817F"/>
</svg>
