<svg xmlns="http://www.w3.org/2000/svg" xmlns:xlink="http://www.w3.org/1999/xlink" id="Layer_1" data-name="Layer 1" viewBox="0 0 1200 90"><defs><style>      .cls-1 {        fill: #00a2e5;      }      .cls-1, .cls-2, .cls-3, .cls-4, .cls-5, .cls-6, .cls-7, .cls-8, .cls-9, .cls-10, .cls-11, .cls-12, .cls-13, .cls-14, .cls-15, .cls-16, .cls-17, .cls-18, .cls-19, .cls-20, .cls-21, .cls-22, .cls-23 {        stroke-width: 0px;      }      .cls-1, .cls-2, .cls-5, .cls-8, .cls-9, .cls-12, .cls-14, .cls-16, .cls-17, .cls-18, .cls-19, .cls-21, .cls-22, .cls-23 {        fill-rule: evenodd;      }      .cls-2 {        fill: #003087;      }      .cls-24 {        clip-path: url(#clippath);      }      .cls-3, .cls-25 {        fill: none;      }      .cls-4, .cls-5 {        fill: #005697;      }      .cls-26 {        stroke-miterlimit: 55.17;        stroke-width: 1.83px;      }      .cls-26, .cls-27 {        stroke: #f3f3f3;      }      .cls-26, .cls-27, .cls-18, .cls-20 {        fill: #fff;      }      .cls-27 {        stroke-miterlimit: 55.17;        stroke-width: 1.83px;      }      .cls-6 {        fill: #0b051d;      }      .cls-7 {        fill: #ffa8cd;      }      .cls-8 {        fill: #eb001b;      }      .cls-9 {        fill: #f79e1b;      }      .cls-10, .cls-22 {        fill: #000;      }      .cls-11 {        fill: #306fc5;      }      .cls-12 {        fill: #7375cf;      }      .cls-13 {        fill: #202121;        isolation: isolate;        opacity: .15;      }      .cls-14 {        fill: #182e66;      }      .cls-15 {        fill: #fbd500;      }      .cls-16 {        fill: #c06;      }      .cls-17 {        fill: #ff5f00;      }      .cls-19 {        fill: #009cde;      }      .cls-25 {        stroke: #000;        stroke-width: 2.46px;      }      .cls-21 {        fill: #f6bc25;      }      .cls-23 {        fill: #0b4a8e;      }    </style><clipPath id="clippath"><rect class="cls-3" x="10.52" y="9" width="107.79" height="71.86" rx="3.59" ry="3.59"></rect></clipPath></defs><g class="cls-24"><g><path class="cls-20" d="M17.71,10.24h93.42c3.29,0,5.95,2.66,5.95,5.95v57.49c0,3.29-2.66,5.95-5.95,5.95H17.71c-3.29,0-5.95-2.66-5.95-5.95V16.19c0-3.29,2.66-5.95,5.95-5.95Z"></path><path class="cls-10" d="M60.43,29.57c4.98,0,8.46,3.43,8.46,8.44s-3.54,8.48-8.59,8.48h-5.52v8.79h-3.99v-25.69h9.63v-.02ZM54.79,43.13h4.58c3.47,0,5.44-1.87,5.44-5.1s-1.98-5.08-5.43-5.08h-4.6v10.2-.02Z"></path><path class="cls-10" d="M69.92,49.94c0-3.27,2.52-5.28,6.97-5.53l5.12-.31v-1.44c0-2.08-1.4-3.32-3.75-3.32-2.23,0-3.61,1.06-3.95,2.75h-3.63c.22-3.38,3.09-5.87,7.73-5.87s7.44,2.41,7.44,6.16v12.92h-3.68v-3.07h-.09c-1.08,2.08-3.45,3.4-5.91,3.4-3.67,0-6.23-2.28-6.23-5.64v-.04ZM82.01,48.26v-1.47l-4.62.29c-2.3.16-3.59,1.17-3.59,2.78s1.35,2.71,3.41,2.71c2.69,0,4.8-1.85,4.8-4.29v-.02Z"></path><path class="cls-10" d="M89.32,62.16v-3.11c.29.07.93.07,1.24.07,1.78,0,2.75-.75,3.32-2.68,0-.04.34-1.13.34-1.15l-6.77-18.76h4.17l4.74,15.23h.07l4.74-15.23h4.06l-7.01,19.71c-1.6,4.55-3.45,6-7.33,6-.32,0-1.28-.04-1.56-.09h-.02Z"></path><path class="cls-10" d="M39.03,32.09c.97-1.2,1.62-2.82,1.44-4.47-1.4.07-3.13.93-4.11,2.14-.9,1.02-1.69,2.71-1.47,4.29,1.58.14,3.16-.79,4.15-1.96Z"></path><path class="cls-10" d="M40.45,34.35c-2.3-.14-4.24,1.29-5.34,1.29s-2.77-1.24-4.58-1.2c-2.35.04-4.55,1.37-5.75,3.49-2.46,4.24-.65,10.55,1.74,14.01,1.17,1.71,2.57,3.59,4.42,3.52,1.74-.07,2.43-1.13,4.55-1.13s2.73,1.13,4.58,1.1c1.92-.04,3.11-1.71,4.28-3.43,1.33-1.96,1.89-3.83,1.92-3.93-.04-.04-3.7-1.44-3.74-5.66-.04-3.52,2.87-5.21,3.02-5.32-1.63-2.43-4.2-2.71-5.1-2.77v.04Z"></path><path class="cls-25" d="M17.71,10.24h93.42c3.29,0,5.95,2.66,5.95,5.95v57.49c0,3.29-2.66,5.95-5.95,5.95H17.71c-3.29,0-5.95-2.66-5.95-5.95V16.19c0-3.29,2.66-5.95,5.95-5.95Z"></path></g></g><rect class="cls-20" x="245" y="9" width="107.75" height="71.83" rx="3.6" ry="3.6"></rect><path class="cls-9" d="M333.08,51.35v-.8h-.21l-.24.56-.24-.56h-.21v.8h.14v-.61l.23.52h.16l.23-.52v.61h.16ZM331.76,51.35v-.66h.26v-.14h-.68v.14h.26v.66h.16Z"></path><path class="cls-17" d="M291.2,54.8h18.11V22.26h-18.11v32.55Z"></path><path class="cls-9" d="M333.73,38.52c0,11.43-9.27,20.7-20.7,20.7-4.83,0-9.27-1.66-12.79-4.43,4.82-3.79,7.91-9.67,7.91-16.27s-3.09-12.48-7.91-16.27c3.53-2.77,7.96-4.43,12.79-4.43,11.43,0,20.7,9.27,20.7,20.7Z"></path><path class="cls-8" d="M292.35,38.52c0-6.6,3.09-12.48,7.91-16.27-3.53-2.77-7.96-4.43-12.79-4.43-11.43,0-20.7,9.27-20.7,20.7s9.27,20.7,20.7,20.7c4.83,0,9.27-1.66,12.79-4.43-4.82-3.79-7.91-9.67-7.91-16.27Z"></path><path class="cls-22" d="M278.3,70.28v-3.39c0-1.29-.79-2.15-2.13-2.15-.68,0-1.4.23-1.9.96-.38-.63-.96-.96-1.8-.96-.56,0-1.12.17-1.57.79v-.68h-1.17v5.41h1.17v-2.98c0-.96.51-1.41,1.29-1.41s1.17.51,1.17,1.41v2.98h1.17v-2.98c0-.96.56-1.41,1.29-1.41.79,0,1.17.51,1.17,1.41v2.98h1.29l.02.02ZM295.74,64.87h-1.9v-1.64h-1.17v1.64h-1.06v1.06h1.06v2.48c0,1.24.51,1.97,1.85,1.97.51,0,1.06-.17,1.47-.4l-.33-1.01c-.33.23-.73.28-1.01.28-.56,0-.79-.33-.79-.91v-2.43h1.9v-1.06l-.02.02ZM305.72,64.75c-.68,0-1.12.33-1.4.79v-.68h-1.17v5.41h1.17v-3.05c0-.91.38-1.41,1.12-1.41.23,0,.51.05.73.1l.33-1.13c-.23-.05-.56-.05-.79-.05v.03ZM290.64,65.33c-.56-.4-1.34-.56-2.18-.56-1.34,0-2.25.68-2.25,1.75,0,.91.68,1.41,1.85,1.59l.56.05c.61.1.96.28.96.56,0,.4-.45.68-1.24.68s-1.4-.28-1.8-.56l-.56.91c.61.45,1.47.68,2.3.68,1.57,0,2.46-.73,2.46-1.75,0-.96-.73-1.47-1.85-1.64l-.56-.05c-.51-.05-.89-.17-.89-.51,0-.4.38-.63,1.01-.63.68,0,1.34.28,1.68.45l.51-.96v-.02ZM321.93,64.75c-.68,0-1.12.33-1.4.79v-.68h-1.17v5.41h1.17v-3.05c0-.91.38-1.41,1.12-1.41.23,0,.51.05.73.1l.33-1.13c-.23-.05-.56-.05-.79-.05v.03ZM306.91,67.58c0,1.64,1.12,2.83,2.86,2.83.79,0,1.34-.17,1.9-.63l-.56-.96c-.45.33-.89.51-1.4.51-.96,0-1.62-.68-1.62-1.75s.68-1.69,1.62-1.75c.51,0,.96.17,1.4.51l.56-.96c-.56-.45-1.12-.63-1.9-.63-1.75,0-2.86,1.19-2.86,2.83ZM317.78,64.87h-1.17v.68c-.38-.51-.96-.79-1.68-.79-1.52,0-2.69,1.19-2.69,2.83s1.17,2.83,2.69,2.83c.79,0,1.34-.28,1.68-.79v.68h1.17v-5.45ZM313.45,67.58c0-.96.61-1.75,1.62-1.75.96,0,1.62.73,1.62,1.75,0,.96-.68,1.75-1.62,1.75-1.01-.05-1.62-.79-1.62-1.75ZM299.39,64.75c-1.57,0-2.69,1.13-2.69,2.83s1.12,2.83,2.74,2.83c.79,0,1.57-.23,2.18-.73l-.56-.86c-.45.33-1.01.56-1.57.56-.73,0-1.47-.33-1.62-1.29h3.98v-.45c.05-1.75-.96-2.88-2.46-2.88h0ZM299.39,65.78c.73,0,1.24.45,1.34,1.29h-2.81c.1-.73.61-1.29,1.47-1.29ZM328.6,62.73h-1.17v2.83c-.38-.51-.96-.79-1.68-.79-1.52,0-2.69,1.19-2.69,2.83s1.17,2.83,2.69,2.83c.79,0,1.34-.28,1.68-.79v.68h1.17v-7.59ZM324.29,67.58c0-.96.61-1.75,1.62-1.75.96,0,1.62.73,1.62,1.75,0,.96-.68,1.75-1.62,1.75-1.01-.05-1.62-.79-1.62-1.75ZM284.92,64.87h-1.17v.68c-.38-.51-.96-.79-1.68-.79-1.52,0-2.69,1.19-2.69,2.83s1.17,2.83,2.69,2.83c.79,0,1.34-.28,1.68-.79v.68h1.17v-5.45ZM280.56,67.58c0-.96.61-1.75,1.62-1.75.96,0,1.62.73,1.62,1.75,0,.96-.68,1.75-1.62,1.75-1.01-.05-1.62-.79-1.62-1.75Z"></path><path class="cls-22" d="M330.27,70.04v.1h.16s.02-.02.02-.03c0,0,0-.03-.02-.03h-.16v-.03ZM330.36,69.97s.09,0,.12.03c.03.02.03.05.03.09s0,.05-.03.09c-.02.02-.05.03-.09.03l.12.16h-.1l-.12-.16h-.03v.16h-.09v-.4h.19ZM330.34,70.51s.09,0,.12-.03c.03-.02.07-.03.1-.07s.05-.07.07-.1c0-.03.02-.09.02-.12s0-.09-.02-.12c0-.03-.03-.07-.07-.1-.03-.03-.07-.05-.1-.07-.03,0-.09-.02-.12-.02s-.09,0-.12.02-.07.03-.1.07-.05.07-.07.1c0,.03-.02.09-.02.12s0,.09.02.12c0,.03.03.07.07.1.03.03.07.05.1.07.03.02.09.03.12.03ZM330.34,69.74s.12,0,.17.03c.05.02.1.05.14.09s.07.09.09.14c.02.05.03.1.03.17s0,.12-.03.17c-.02.05-.05.1-.09.14s-.09.07-.14.09-.1.03-.17.03-.12,0-.17-.03c-.05-.02-.1-.05-.14-.09s-.07-.09-.09-.14c-.02-.05-.03-.1-.03-.17s0-.12.03-.17c.02-.05.05-.1.09-.14s.09-.07.14-.09.1-.03.17-.03Z"></path><rect class="cls-20" x="361.13" y="9" width="108" height="72" rx="3.6" ry="3.6"></rect><path class="cls-12" d="M405.82,56.12h18.63V22.64h-18.63v33.48Z"></path><path class="cls-8" d="M406.99,39.38c0-6.79,3.17-12.83,8.13-16.74-3.62-2.85-8.18-4.56-13.16-4.56-11.75,0-21.28,9.53-21.28,21.28s9.53,21.28,21.28,21.28c4.97,0,9.53-1.69,13.16-4.56-4.96-3.89-8.13-9.95-8.13-16.74v.04Z"></path><path class="cls-1" d="M448.91,52.57v-.83h-.22l-.25.58-.25-.58h-.22v.83h.14v-.63l.23.54h.16l.23-.54v.63h.16ZM447.54,52.57v-.68h.27v-.14h-.7v.14h.27v.68h.16Z"></path><path class="cls-1" d="M449.58,39.38c0,11.75-9.53,21.28-21.28,21.28-4.97,0-9.53-1.69-13.16-4.56,4.96-3.89,8.13-9.95,8.13-16.74s-3.17-12.83-8.13-16.74c3.62-2.85,8.18-4.56,13.16-4.56,11.75,0,21.28,9.53,21.28,21.28v.04Z"></path><path class="cls-22" d="M437.94,71.2v.14h.2s.02-.04.02-.05,0-.04-.02-.05h-.2v-.04ZM438.06,71.09s.13,0,.16.04c.04.04.05.07.05.13,0,.04,0,.07-.04.11s-.07.04-.13.05l.16.2h-.13l-.16-.2h-.05v.2h-.11v-.52h.23ZM438.03,71.79s.11,0,.16-.04c.05-.02.09-.05.14-.09.04-.04.07-.09.09-.14.02-.05.04-.11.04-.16s0-.11-.04-.16c-.02-.05-.05-.11-.09-.14s-.09-.07-.14-.09-.11-.04-.16-.04-.13,0-.18.04c-.05.02-.11.05-.14.09s-.07.09-.09.14c-.02.05-.04.11-.04.16s0,.13.04.16c.02.05.05.11.09.14s.09.07.14.09.11.04.18.04ZM438.03,70.8s.16,0,.22.04c.07.04.13.07.18.13s.09.11.13.18c.04.07.04.14.04.22s0,.14-.04.22c-.04.07-.07.13-.13.18-.05.05-.11.09-.18.13-.07.04-.14.04-.22.04s-.16,0-.23-.04c-.07-.04-.13-.07-.18-.13s-.09-.11-.13-.18c-.04-.07-.04-.14-.04-.22s0-.14.04-.22c.04-.07.07-.13.13-.18.05-.05.11-.09.18-.13.07-.04.14-.04.23-.04ZM429.54,65.83c.25,0,.59.05.87.16l-.38,1.15c-.25-.11-.52-.14-.77-.14-.81,0-1.21.52-1.21,1.46v3.17h-1.23v-5.64h1.21v.68c.32-.5.77-.83,1.5-.83l.02-.02ZM425.29,67.09h-2v2.56c0,.56.2.94.81.94.32,0,.72-.11,1.08-.32l.36,1.05c-.4.27-1.01.43-1.53.43-1.46,0-1.96-.77-1.96-2.09v-2.58h-1.15v-1.12h1.15v-1.71h1.24v1.71h2v1.14ZM419.38,67.41c-.34-.22-1.05-.49-1.77-.49-.67,0-1.08.25-1.08.67,0,.38.43.49.96.56l.58.09c1.23.18,1.96.7,1.96,1.69,0,1.08-.94,1.84-2.58,1.84-.92,0-1.77-.23-2.45-.74l.58-.95c.41.32,1.03.59,1.87.59s1.28-.25,1.28-.68c0-.32-.32-.5-.99-.59l-.58-.09c-1.26-.18-1.95-.74-1.95-1.66,0-1.12.92-1.8,2.34-1.8.9,0,1.71.2,2.31.59l-.52.99.04-.02ZM410,68.3c.13-.81.63-1.37,1.5-1.37.79,0,1.3.49,1.42,1.37h-2.92ZM414.2,68.8c0-1.77-1.1-2.95-2.69-2.95s-2.81,1.21-2.81,2.95,1.21,2.95,2.9,2.95c.85,0,1.62-.22,2.31-.79l-.59-.9c-.47.38-1.08.59-1.64.59-.79,0-1.51-.36-1.69-1.39h4.2c0-.16.02-.31.02-.47h0ZM433.81,66.98c-.25,0-.49.04-.7.13s-.4.22-.56.38-.29.34-.38.58c-.09.22-.14.47-.14.74s.04.5.14.74.22.41.38.58c.16.16.34.29.56.38s.45.13.7.13.49-.04.7-.13.4-.22.56-.38.29-.34.38-.58c.09-.22.14-.47.14-.74s-.05-.5-.14-.74c-.09-.22-.22-.41-.38-.58-.16-.16-.34-.29-.56-.38s-.45-.13-.7-.13ZM433.81,65.83c.43,0,.85.07,1.21.23.38.14.68.36.96.63.27.27.49.58.63.94.16.36.23.76.23,1.17s-.07.81-.23,1.17c-.16.36-.36.67-.63.94-.27.27-.59.47-.96.63-.38.14-.77.23-1.21.23s-.85-.07-1.21-.23c-.38-.14-.68-.36-.96-.63-.27-.27-.49-.58-.63-.94s-.23-.76-.23-1.17.07-.81.23-1.17c.16-.36.36-.67.63-.94.27-.27.59-.47.96-.63.38-.14.77-.23,1.21-.23ZM402.96,68.8c0-.99.65-1.8,1.71-1.8s1.69.77,1.69,1.8-.68,1.8-1.69,1.8-1.71-.81-1.71-1.8ZM407.52,68.8v-2.83h-1.23v.68c-.4-.5-.97-.83-1.78-.83-1.59,0-2.83,1.24-2.83,2.95s1.24,2.95,2.83,2.95c.81,0,1.39-.32,1.78-.83v.68h1.23v-2.83.04ZM400.6,71.61v-3.55c0-1.33-.85-2.23-2.22-2.25-.72,0-1.46.22-1.98,1.01-.4-.63-1.01-1.01-1.87-1.01-.59,0-1.19.18-1.66.85v-.7h-1.23v5.64h1.24v-3.14c0-.97.54-1.5,1.39-1.5s1.23.52,1.23,1.5v3.14h1.24v-3.14c0-.97.56-1.5,1.39-1.5s1.24.52,1.24,1.5v3.14h1.24l-.02.02Z"></path><rect class="cls-20" x="479" y="9.05" width="107.66" height="71.77" rx="3.59" ry="3.59"></rect><path class="cls-19" d="M548.37,39.82c-.33,2.16-1.97,2.16-3.57,2.16h-.91l.63-4.03c.04-.25.25-.42.49-.42h.42c1.09,0,2.11,0,2.64.62.32.37.4.91.3,1.67ZM547.67,34.19h-6.01c-.4,0-.76.3-.83.7l-2.43,15.4c-.05.3.19.58.49.58h3.08c.28,0,.53-.21.58-.49l.69-4.36c.07-.4.42-.7.83-.7h1.9c3.96,0,6.24-1.92,6.84-5.71.26-1.65,0-2.97-.77-3.87-.86-1-2.37-1.53-4.38-1.53l.02-.02Z"></path><path class="cls-2" d="M505.48,39.82c-.33,2.16-1.97,2.16-3.57,2.16h-.91l.63-4.03c.04-.25.25-.42.49-.42h.42c1.09,0,2.11,0,2.64.62.32.37.4.91.3,1.67ZM504.8,34.19h-6.01c-.4,0-.76.3-.83.7l-2.43,15.4c-.05.3.19.58.49.58h2.87c.4,0,.76-.3.83-.7l.65-4.15c.07-.4.42-.7.83-.7h1.9c3.96,0,6.24-1.92,6.84-5.71.26-1.65,0-2.97-.77-3.87-.86-1-2.37-1.53-4.38-1.53l.02-.02Z"></path><path class="cls-2" d="M518.74,45.36c-.28,1.64-1.58,2.74-3.25,2.74-.83,0-1.51-.26-1.93-.77-.42-.51-.58-1.21-.46-2.02.26-1.64,1.58-2.76,3.22-2.76.83,0,1.48.26,1.92.79.44.51.62,1.23.49,2.04l.02-.02ZM522.77,39.75h-2.88c-.25,0-.46.18-.49.42l-.12.81-.19-.3c-.62-.9-2.02-1.21-3.39-1.21-3.18,0-5.89,2.41-6.42,5.78-.28,1.69.12,3.29,1.07,4.41.88,1.04,2.13,1.46,3.62,1.46,2.57,0,3.99-1.65,3.99-1.65l-.12.79c-.05.3.19.58.49.58h2.58c.4,0,.76-.3.83-.7l1.57-9.85c.05-.3-.19-.58-.49-.58l-.04.04Z"></path><path class="cls-19" d="M561.63,45.36c-.28,1.64-1.58,2.74-3.25,2.74-.83,0-1.51-.26-1.93-.77-.42-.51-.58-1.21-.46-2.02.26-1.64,1.58-2.76,3.22-2.76.83,0,1.48.26,1.92.79.44.51.62,1.23.49,2.04l.02-.02ZM565.64,39.75h-2.88c-.25,0-.46.18-.49.42l-.12.81-.19-.3c-.62-.9-2-1.21-3.39-1.21-3.18,0-5.89,2.41-6.42,5.78-.28,1.69.12,3.29,1.07,4.41.88,1.04,2.13,1.46,3.62,1.46,2.57,0,3.99-1.65,3.99-1.65l-.12.79c-.05.3.19.58.49.58h2.58c.4,0,.76-.3.83-.7l1.57-9.85c.05-.3-.19-.58-.49-.58l-.04.04Z"></path><path class="cls-2" d="M538.09,39.75h-2.9c-.28,0-.53.14-.69.37l-3.99,5.87-1.69-5.64c-.11-.35-.44-.6-.81-.6h-2.85c-.35,0-.58.33-.47.67l3.18,9.34-2.99,4.22c-.23.33,0,.79.4.79h2.88c.28,0,.53-.14.69-.35l9.62-13.87c.23-.33,0-.79-.4-.79h.02Z"></path><path class="cls-19" d="M569.04,34.63l-2.46,15.68c-.05.3.19.58.49.58h2.48c.4,0,.76-.3.83-.7l2.43-15.4c.05-.3-.19-.58-.49-.58h-2.78c-.25,0-.46.18-.49.42h0Z"></path><rect class="cls-20" x="595.86" y="9.28" width="107.58" height="71.72" rx="3.59" ry="3.59"></rect><path class="cls-18" d="M616.33,19.81v49.26c0,2.35,1.94,4.29,4.31,4.29h29.51c22.31,0,31.98-12.45,31.98-28.98s-9.68-28.85-31.98-28.85h-29.51c-2.37,0-4.31,1.94-4.31,4.29Z"></path><path class="cls-16" d="M635.85,27.64v36.31h15.7c14.26,0,20.44-8.1,20.44-19.56s-6.19-19.48-20.44-19.48h-12.99c-1.5,0-2.71,1.25-2.71,2.73Z"></path><path class="cls-22" d="M649.76,19.12c24.37,0,28,15.59,28,24.89,0,16.12-9.97,25-28,25h-25.69c-2.28,0-4.12-1.85-4.12-4.11V23.24c0-2.26,1.85-4.11,4.12-4.11h25.69v-.02ZM649.76,20.49h-25.69c-1.52,0-2.75,1.21-2.75,2.73v41.66c0,1.52,1.23,2.73,2.75,2.73h25.69c17.17,0,26.63-8.39,26.63-23.63,0-20.46-16.7-23.52-26.63-23.52v.02Z"></path><path class="cls-18" d="M641.86,39.36h0c.58.02,1.1.11,1.63.27.51.16.94.45,1.3.8.36.36.65.81.87,1.32.2.54.31,1.16.31,1.88,0,.63-.09,1.21-.25,1.75-.18.54-.42.99-.76,1.39-.33.38-.76.69-1.27.92-.51.22-1.1.34-1.79.34h-3.89v-8.68h3.85ZM641.39,41.01h-1.43v5.46h1.75c.29-.02.56-.07.85-.14.27-.09.51-.24.71-.45.2-.22.38-.47.51-.81s.2-.72.2-1.21c0-.43-.04-.83-.13-1.18-.09-.34-.25-.67-.45-.9s-.47-.45-.8-.58-.74-.2-1.23-.2l.02.02Z"></path><path class="cls-18" d="M660,39.36l3.31,8.68h-2.03l-.67-1.92h-3.31l-.71,1.92h-1.95l3.33-8.68h2.03ZM658.99,41.5h-.02l-1.16,3.18h2.3l-1.1-3.18h-.02Z"></path><path class="cls-18" d="M653.09,40.99h-4.52v1.86h4.16v1.47h-4.16v2.12h4.63v1.61h-6.51v-8.68h6.4v1.63Z"></path><path class="cls-18" d="M666.06,39.36v7.07h4.49v1.61h-6.51v-8.68h2.03Z"></path><path class="cls-22" d="M628.61,50.22c1.59,0,2.89,1.34,2.89,3.02v10.71h-.02c-3.2,0-5.77-2.7-5.77-6.02v-4.7c0-1.66,1.28-3.02,2.89-3.02v.02ZM628.97,40.09c2.19,0,3.98,1.77,3.98,3.98s-1.77,3.98-3.98,3.98-3.98-1.77-3.98-3.98,1.77-3.98,3.98-3.98Z"></path><rect class="cls-7" x="712" y="9.11" width="107.63" height="71.75" rx="3.59" ry="3.59"></rect><path class="cls-6" d="M790.67,49.7c-1.41,0-2.52-1.18-2.52-2.59s1.11-2.59,2.52-2.59,2.52,1.18,2.52,2.59-1.11,2.59-2.52,2.59ZM789.96,52.45c1.22,0,2.75-.46,3.61-2.27l.09.04c-.38.98-.38,1.57-.38,1.72v.23h3.04v-10.14h-3.04v.23c0,.14,0,.73.38,1.72l-.09.04c-.86-1.81-2.4-2.27-3.61-2.27-2.9,0-4.95,2.31-4.95,5.34s2.04,5.34,4.95,5.34v.02ZM779.71,41.76c-1.38,0-2.47.48-3.34,2.27l-.09-.04c.38-.98.38-1.57.38-1.72v-.23h-3.04v10.14h3.13v-5.34c0-1.39.82-2.29,2.13-2.29s1.97.75,1.97,2.27v5.36h3.13v-6.45c0-2.31-1.79-3.95-4.25-3.95v-.02ZM769.1,44.03l-.09-.04c.38-.98.38-1.57.38-1.72v-.23h-3.04v10.14h3.13v-4.88c.02-1.43.77-2.29,2-2.29.34,0,.61.04.91.13v-3.09c-1.38-.29-2.61.23-3.29,1.98ZM759.16,49.7c-1.41,0-2.52-1.18-2.52-2.59s1.11-2.59,2.52-2.59,2.52,1.18,2.52,2.59-1.11,2.59-2.52,2.59ZM758.44,52.45c1.22,0,2.75-.46,3.61-2.27l.09.04c-.38.98-.38,1.57-.38,1.72v.23h3.04v-10.14h-3.04v.23c0,.14,0,.73.38,1.72l-.09.04c-.86-1.81-2.4-2.27-3.61-2.27-2.9,0-4.95,2.31-4.95,5.34s2.04,5.34,4.95,5.34v.02ZM749.15,52.17h3.13v-14.66h-3.13v14.66ZM746.84,37.51h-3.2c0,2.61-1.61,4.97-4.04,6.63l-.97.66v-7.31h-3.32v14.66h3.32v-7.28l5.49,7.28h4.04l-5.27-6.95c2.4-1.73,3.97-4.43,3.95-7.7v.02Z"></path><path class="cls-27" d="M836.94,9.49h92.79c3.58,0,6.49,2.83,6.49,6.32v57.87c0,3.49-2.91,6.32-6.49,6.32h-92.79c-3.58,0-6.49-2.83-6.49-6.32V15.81c0-3.49,2.91-6.32,6.49-6.32Z"></path><path class="cls-4" d="M915.2,28.03h-25.25l-2.57,2.82-8.34,9.14h0l-2.57,2.82h-24.91l2.53-2.86,1.19-1.35,2.53-2.86h-11.48c-2.1,0-3.82,1.71-3.82,3.82v8.04c0,2.1,1.72,3.82,3.82,3.82h43.96c2.1,0,4.96-1.27,6.38-2.84l6.64-7.37s11.9-13.18,11.9-13.18Z"></path><path class="cls-15" d="M920.27,19.43c2.1,0,3.82,1.71,3.82,3.82v8.04c0,2.1-1.72,3.82-3.82,3.82h-11.44l2.55-2.84h0l1.27-1.4,2.55-2.84h-25.25l-13.47,14.78h-25.07l17.99-19.82.68-.76c1.42-1.55,4.28-2.82,6.38-2.82h43.83l-.02.02Z"></path><path class="cls-5" d="M851.11,65.09c0-.52-.13-.98-.38-1.36s-.59-.68-1-.88c.42-.2.74-.5.96-.88s.34-.83.34-1.33v-.28c0-.61-.11-1.11-.36-1.51s-.57-.72-1-.98c-.44-.24-.95-.42-1.55-.52-.61-.11-1.27-.17-2.01-.17h-.78c-.26,0-.53.02-.78.04-.25,0-.49.04-.7.06s-.38.04-.53.06c-.3.06-.51.15-.64.28s-.19.37-.19.72v9.22c0,.35.06.59.19.72s.34.22.66.28c.15.04.34.06.57.07.21.02.45.04.7.06.25,0,.51.04.78.04h.79c.68,0,1.31-.06,1.91-.15.59-.09,1.12-.28,1.55-.53s.79-.61,1.04-1.05c.26-.44.4-1,.4-1.66v-.22h.02ZM848.48,60.74c0,.17-.02.31-.08.46s-.13.28-.26.39c-.11.11-.28.18-.47.26-.21.07-.45.09-.78.09h-1.74v-2.62h1.19c.79,0,1.36.09,1.66.29.32.2.47.5.47.92v.22-.02ZM848.08,66.23c.3-.24.45-.55.45-.98v-.17c0-.37-.11-.68-.36-.94-.25-.28-.66-.41-1.29-.41h-1.74v2.84h1.29c.79,0,1.34-.11,1.66-.35h-.02ZM859.64,62.86c0-.55-.09-1.03-.26-1.42-.17-.39-.42-.7-.72-.96-.3-.24-.7-.42-1.14-.55-.45-.11-.96-.17-1.51-.17-.51,0-1.02.04-1.51.11-.49.07-.89.15-1.17.2-.19.06-.3.17-.3.33v1.24c0,.09.02.17.08.2s.11.06.21.06h.08c.13,0,.28-.02.47-.04.19,0,.4-.02.62-.04.23,0,.47,0,.74-.02h.76c.36,0,.64.07.85.2.21.13.3.41.3.85v.55h-.83c-1.34,0-2.31.2-2.91.61s-.91,1.05-.91,1.95v.13c0,.5.08.9.23,1.24s.34.61.61.81c.25.2.53.35.85.42.32.09.64.13.98.13.47,0,.87-.06,1.21-.18.34-.13.66-.29.96-.5v.24s.04.15.09.22c.06.06.13.09.23.09h1.74s.15-.04.21-.09.09-.13.09-.22v-5.4h-.04ZM856.55,66.76c.21-.07.42-.15.61-.24v-1.66h-.89c-.26,0-.49.02-.66.07-.17.04-.32.11-.42.2-.09.09-.17.2-.21.35s-.06.29-.06.48v.13c0,.33.08.53.25.63.15.09.4.13.74.13.25,0,.47-.04.68-.09h-.04ZM869.13,68.26v-5.05c0-.48-.04-.92-.11-1.35s-.21-.77-.42-1.09c-.21-.31-.47-.55-.83-.74s-.81-.28-1.38-.28c-.49,0-.95.06-1.32.18-.38.11-.79.33-1.21.63v-.37s-.04-.15-.09-.22c-.06-.06-.13-.09-.23-.09h-1.74s-.15.04-.23.09c-.06.06-.09.13-.09.2v8.06s.04.15.09.22c.08.07.15.09.23.09h1.87s.15-.04.21-.09c.06-.07.09-.15.09-.22v-5.95c.26-.15.53-.26.76-.35.25-.09.47-.13.7-.13s.44.02.59.07c.15.04.26.13.34.24.08.11.13.26.17.44s.04.41.04.66v5.03s.04.15.09.22c.06.07.13.09.21.09h1.87s.15-.04.23-.09c.08-.07.09-.15.09-.22h.08ZM876.8,66.78v1.35c0,.11-.02.18-.08.24-.06.04-.13.09-.25.11-.23.06-.49.09-.85.15-.34.06-.76.07-1.23.07-1.1,0-1.97-.33-2.63-.98-.66-.66-.98-1.6-.98-2.84v-1.27c0-1.24.32-2.19.98-2.84.66-.66,1.53-.98,2.63-.98.47,0,.87.02,1.23.07.34.06.62.09.85.15.11.04.19.07.25.11.06.04.08.13.08.24v1.35s-.04.15-.09.18-.13.07-.21.07h-.04c-.28-.04-.57-.06-.83-.07s-.62-.04-1.06-.04c-.17,0-.34.04-.49.09-.15.06-.28.15-.4.29-.11.13-.21.31-.26.55-.08.22-.09.52-.09.85v1.27c0,.33.04.61.09.85.08.22.15.41.26.55.11.13.25.24.4.29s.32.09.49.09c.45,0,.79,0,1.06-.04.26-.02.55-.04.83-.07h.04s.15.02.21.07c.06.04.09.11.09.18v-.07ZM885.42,63.7c0-.61-.09-1.14-.26-1.64-.17-.48-.42-.9-.76-1.24-.32-.33-.74-.61-1.21-.79-.49-.18-1.04-.28-1.68-.28s-1.19.09-1.66.28c-.49.18-.89.44-1.23.79-.34.33-.59.76-.76,1.24s-.26,1.03-.26,1.64v1.07c0,.61.09,1.14.26,1.64.17.48.42.9.76,1.24.34.33.74.61,1.23.79.49.18,1.04.28,1.66.28s1.19-.09,1.68-.28c.49-.18.89-.44,1.21-.79.32-.33.57-.76.76-1.24.17-.48.26-1.03.26-1.64v-1.07ZM881.53,66.64c.91,0,1.38-.63,1.38-1.86v-1.07c0-1.24-.45-1.84-1.38-1.84-.45,0-.79.15-1.04.46-.25.31-.36.77-.36,1.38v1.07c0,.61.11,1.09.36,1.4s.59.46,1.04.46ZM894.65,68.26v-5.05c0-.48-.04-.92-.11-1.35s-.23-.77-.42-1.09c-.21-.31-.47-.55-.83-.74s-.81-.28-1.38-.28c-.49,0-.95.06-1.32.18-.38.11-.79.33-1.21.63v-.37s-.04-.15-.09-.22c-.06-.06-.13-.09-.21-.09h-1.74s-.15.04-.23.09c-.06.06-.09.13-.09.2v8.06s.04.15.09.22c.08.07.15.09.23.09h1.87s.15-.04.23-.09c.06-.07.09-.15.09-.22v-5.95c.26-.15.53-.26.76-.35.25-.09.47-.13.7-.13s.44.02.59.07c.15.04.26.13.34.24.08.11.13.26.17.44s.04.41.04.66v5.03s.04.15.09.22c.06.07.13.09.21.09h1.87s.15-.04.23-.09c.08-.07.09-.15.09-.22h.04ZM901.45,67.11v1.18c0,.17-.09.28-.3.29-.25.04-.45.07-.62.09s-.38.04-.61.04c-.42,0-.79-.04-1.12-.09-.32-.07-.59-.2-.81-.39-.21-.18-.38-.46-.49-.79s-.17-.77-.17-1.31v-4.39l-1.25-.2s-.15-.06-.23-.11c-.08-.06-.09-.13-.09-.2v-1s.04-.15.09-.22c.08-.07.15-.09.23-.09h1.25v-1.24s.04-.15.09-.2.13-.09.21-.11l1.89-.31h.04s.15.02.21.07c.06.04.08.11.08.18v1.6h1.27s.15.04.23.09c.06.06.09.13.09.22v1.24s-.04.15-.09.22c-.06.06-.13.09-.23.09h-1.27v4.41c0,.29.02.5.08.59s.19.13.44.13h.76c.23,0,.32.09.32.26l.02-.06ZM909.73,62.86c0-.55-.09-1.03-.26-1.42-.17-.39-.42-.7-.72-.96-.3-.24-.7-.42-1.14-.55-.45-.11-.96-.17-1.51-.17-.51,0-1.02.04-1.51.11-.49.07-.89.15-1.17.2-.19.06-.3.17-.3.33v1.24c0,.09.02.17.08.2s.11.06.21.06h.08c.13,0,.28-.02.47-.04.19,0,.4-.02.62-.04.23,0,.47,0,.74-.02h.76c.36,0,.64.07.85.2.21.13.3.41.3.85v.55h-.83c-1.34,0-2.31.2-2.91.61s-.91,1.05-.91,1.95v.13c0,.5.08.9.23,1.24s.34.61.61.81c.25.2.53.35.85.42.32.09.64.13.98.13.47,0,.87-.06,1.21-.18.34-.13.66-.29.96-.5v.24s.04.15.09.22c.06.06.13.09.23.09h1.74s.15-.04.21-.09.09-.13.09-.22v-5.4h-.04ZM906.67,66.76c.21-.07.42-.15.61-.24v-1.66h-.89c-.26,0-.49.02-.66.07-.17.04-.32.11-.42.2-.09.09-.17.2-.21.35s-.06.29-.06.48v.13c0,.33.08.53.25.63.15.09.4.13.74.13.25,0,.45-.04.68-.09h-.04ZM917.39,68.13v-1.35s-.04-.15-.09-.18-.13-.07-.21-.07h-.04c-.28.04-.57.06-.83.07s-.62.04-1.06.04c-.17,0-.34-.04-.49-.09-.15-.06-.28-.15-.4-.29-.11-.13-.21-.31-.26-.55-.08-.22-.09-.52-.09-.85v-1.27c0-.33.04-.61.09-.85.08-.22.15-.41.26-.55.11-.13.25-.24.4-.29s.32-.09.49-.09c.45,0,.79,0,1.06.04.26.02.55.04.83.07h.04s.15-.02.21-.07c.06-.04.09-.11.09-.18v-1.35c0-.11-.02-.18-.08-.24-.06-.04-.13-.09-.25-.11-.21-.06-.49-.09-.85-.15-.34-.06-.76-.07-1.21-.07-1.1,0-1.97.33-2.63.98-.66.66-.98,1.6-.98,2.84v1.27c0,1.24.32,2.19.98,2.84.66.66,1.53.98,2.63.98.47,0,.87-.02,1.21-.07.34-.06.62-.09.85-.15.11-.04.19-.07.25-.11s.08-.13.08-.24v.07ZM924.09,67.11v1.18c0,.17-.09.28-.3.29-.25.04-.45.07-.62.09s-.38.04-.61.04c-.42,0-.79-.04-1.12-.09-.32-.07-.59-.2-.81-.39-.21-.18-.38-.46-.49-.79s-.17-.77-.17-1.31v-4.39l-1.25-.2s-.15-.06-.23-.11c-.08-.06-.09-.13-.09-.2v-1s.04-.15.09-.22c.08-.07.15-.09.23-.09h1.25v-1.24s.04-.15.09-.2.13-.09.21-.11l1.89-.31h.04s.15.02.21.07c.06.04.08.11.08.18v1.6h1.27s.15.04.21.09c.06.06.09.13.09.22v1.24s-.04.15-.09.22c-.06.06-.13.09-.21.09h-1.27v4.41c0,.29.02.5.08.59s.19.13.44.13h.76c.21,0,.32.09.32.26l.02-.06Z"></path><rect class="cls-20" x="1062.37" y="9.49" width="107.27" height="71.51" rx="3.58" ry="3.58"></rect><path class="cls-14" d="M1138.2,48.81l3.2-8.64,1.8,8.64h-5ZM1150.7,55.72l-4.5-22.47h-6.19c-2.09,0-2.6,1.67-2.6,1.67l-8.38,20.79h5.86l1.17-3.34h7.15l.66,3.34h6.83Z"></path><path class="cls-14" d="M1129.91,38.86l.8-4.66s-2.45-.95-5.01-.95c-2.77,0-9.34,1.23-9.34,7.18,0,5.61,7.71,5.68,7.71,8.62s-6.92,2.42-9.2.56l-.83,4.87s2.49,1.23,6.29,1.23,9.54-2,9.54-7.43-7.78-6.17-7.78-8.62,5.43-2.14,7.81-.81Z"></path><path class="cls-14" d="M1110.19,55.72h-6.15l3.85-22.47h6.15l-3.85,22.47Z"></path><path class="cls-14" d="M1099.39,33.26l-5.59,15.45-.66-3.33h0s-1.97-10.1-1.97-10.1c0,0-.24-2.02-2.78-2.02h-9.24l-.11.38s2.83.59,6.13,2.57l5.09,19.52h6.11l9.33-22.47h-6.31Z"></path><path class="cls-14" d="M1092.37,45.35l-1.87-10.08s-.22-2.02-2.63-2.02h-8.74l-.1.38s4.2.92,8.23,4.35c3.85,3.28,5.11,7.37,5.11,7.37Z"></path><path class="cls-11" d="M235.17,74.82c0,3.41-2.86,6.18-6.39,6.18h-95.3c-3.53,0-6.39-2.77-6.39-6.18V15.12c0-3.41,2.86-6.18,6.39-6.18h95.3c3.53,0,6.39,2.77,6.39,6.18v59.7h0Z"></path><path class="cls-13" d="M131.63,74.82V15.12c0-3.41,2.86-6.18,6.39-6.18h-4.54c-3.53,0-6.39,2.77-6.39,6.18v59.7c0,3.41,2.86,6.18,6.39,6.18h4.54c-3.53,0-6.39-2.77-6.39-6.18Z"></path><g><polygon class="cls-20" points="142.83 37.78 146.06 37.78 144.45 33.81 142.83 37.78"></polygon><polygon class="cls-20" points="160.01 51.12 160.01 52.96 165.44 52.96 165.44 54.95 160.01 54.95 160.01 57.08 166.03 57.08 168.82 54.1 166.17 51.12 160.01 51.12"></polygon><polygon class="cls-20" points="202.43 33.81 200.67 37.78 204.04 37.78 202.43 33.81"></polygon><polygon class="cls-20" points="175.71 58.21 175.71 50.12 171.9 54.1 175.71 58.21"></polygon><path class="cls-20" d="M182.91,52.39c-.15-.85-.73-1.28-1.62-1.28h-3.08v2.55h3.23c.88,0,1.47-.43,1.47-1.28Z"></path><path class="cls-20" d="M193.18,53.39c.29-.14.44-.57.44-.99.15-.57-.15-.85-.44-.99-.29-.14-.73-.14-1.17-.14h-2.94v2.27h2.94c.44,0,.88,0,1.17-.14Z"></path><path class="cls-20" d="M214.32,30.12v1.7l-.88-1.7h-6.9v1.7l-.88-1.7h-9.39c-1.61,0-2.94.28-4.11.85v-.85h-6.61v.85c-.73-.57-1.61-.85-2.79-.85h-23.63l-1.62,3.55-1.61-3.55h-7.49v1.7l-.73-1.7h-6.46l-2.94,6.67-3.38,7.24-.06.14h7.64l.05-.14.88-2.13h1.91l.88,2.27h8.51v-1.7l.73,1.7h4.26l.73-1.7v1.7h20.4v-3.69h.29q.29,0,.29.43v3.12h10.57v-.85c.88.43,2.2.85,3.96.85h4.4l.88-2.27h2.05l.88,2.27h8.51v-2.13l1.32,2.13h6.9v-13.91h-6.61ZM164.56,42.04h-2.35v-7.8l-.15.33h0s-3.41,7.48-3.41,7.48h-2.16l-3.52-7.8v7.8h-4.99l-1.03-2.13h-4.99l-1.03,2.13h-2.58l4.34-9.93h3.67l4.11,9.51v-9.51h3.89l.07.14h0l1.85,3.9,1.33,2.92.05-.15,2.94-6.81h3.96v9.93h0ZM174.69,34.23h-5.72v1.84h5.58v1.99h-5.58v1.99h5.72v2.13h-8.22v-10.07h8.22v2.13h0ZM185.16,37.89s0,0,.01,0c.06.06.1.11.14.17.28.36.51.89.52,1.66,0,.01,0,.03,0,.04,0,0,0,.01,0,.02,0,0,0,0,0,.01,0,.08,0,.16,0,.24v1.99h-2.2v-1.14c0-.57,0-1.42-.44-1.99-.14-.13-.28-.22-.43-.29-.22-.14-.64-.14-1.33-.14h-2.64v3.55h-2.49v-9.93h5.58c1.32,0,2.2,0,2.94.43.72.42,1.15,1.11,1.17,2.21-.03,1.51-1.04,2.34-1.76,2.62,0,0,.49.1.93.54ZM190.1,42.04h-2.5v-9.93h2.5v9.93ZM218.72,42.04h-3.23l-4.7-7.52v6.24h-.02s0,1.28,0,1.28h-2.48s-2.5,0-2.5,0l-.88-2.13h-5.14l-.88,2.27h-2.79c-1.17,0-2.64-.28-3.52-1.13-.88-.85-1.32-1.99-1.32-3.83,0-1.42.29-2.84,1.32-3.97.73-.85,2.06-1.14,3.67-1.14h2.35v2.13h-2.35c-.88,0-1.32.14-1.91.57-.44.43-.73,1.28-.73,2.27,0,1.14.15,1.84.73,2.41.44.43,1.03.57,1.76.57h1.03l3.38-7.8h3.67l4.11,9.51v-9.51h3.67l4.26,6.95v-6.95h2.5v9.79h0,0Z"></path><path class="cls-20" d="M183.06,36.24s.08-.09.11-.15c.13-.2.29-.57.2-1.07,0-.05-.01-.09-.02-.13,0-.01,0-.02,0-.03h0c-.07-.24-.26-.39-.45-.48-.29-.14-.73-.14-1.17-.14h-2.94v2.27h2.94c.44,0,.88,0,1.17-.14.04-.02.08-.05.12-.08h0s.02-.01.04-.04Z"></path><path class="cls-20" d="M227.38,56.23c0-.99-.29-1.99-.73-2.7v-6.39h0v-.43h-7.07c-.92,0-2.03.85-2.03.85v-.85h-6.75c-1.03,0-2.35.28-2.94.85v-.85h-12.04v.85c-.88-.71-2.5-.85-3.23-.85h-7.93v.85c-.73-.71-2.5-.85-3.38-.85h-8.81l-2.06,2.13-1.91-2.13h-13.21v14.33h12.92l2.12-2.05,1.84,2.05h8.22v-3.26h.73c1.03,0,2.35,0,3.38-.43v3.83h6.61v-3.69h.29q.44,0,.44.43v3.26h19.96c1.32,0,2.64-.28,3.38-.85v.85h6.31c1.32,0,2.64-.14,3.52-.71,1.35-.78,2.2-2.17,2.33-3.83,0-.05.01-.1.02-.15h0c0-.1,0-.19,0-.28ZM181.15,55.37h-2.94v3.69h-4.82l-2.81-3.12h0s-.14-.14-.14-.14l-3.23,3.26h-9.39v-9.93h9.54l2.61,2.76.55.58.07-.07,3.08-3.26h7.78c1.51,0,3.2.36,3.84,1.85.08.29.12.62.12.99,0,2.84-2.06,3.41-4.26,3.41ZM195.82,55.23c.29.42.44.99.44,1.84v1.99h-2.49v-1.28c0-.57,0-1.56-.44-1.99-.29-.42-.88-.42-1.76-.42h-2.64v3.69h-2.5v-10.07h5.58c1.17,0,2.2,0,2.94.43.73.43,1.32,1.14,1.32,2.27,0,1.56-1.03,2.41-1.76,2.7.73.28,1.17.57,1.32.85ZM205.95,51.12h-5.73v1.84h5.58v1.99h-5.58v1.99h5.73v2.13h-8.22v-10.07h8.22v2.13ZM212.12,59.06h-4.7v-2.13h4.7c.44,0,.73,0,1.03-.28.15-.14.29-.43.29-.71s-.15-.57-.29-.71c-.15-.14-.44-.28-.88-.28-2.35-.14-5.14,0-5.14-3.12,0-1.42.88-2.98,3.52-2.98h4.84v2.41h-4.55c-.44,0-.73,0-1.03.14-.29.14-.29.43-.29.71,0,.43.29.57.59.71.29.14.59.14.88.14h1.32c1.32,0,2.2.28,2.79.85.44.43.73,1.14.73,2.13,0,2.13-1.32,3.12-3.82,3.12ZM224.74,58.07c-.59.57-1.61.99-3.08.99h-4.7v-2.13h4.7c.44,0,.73,0,1.03-.28.15-.14.29-.43.29-.71s-.15-.57-.29-.71c-.15-.14-.44-.28-.88-.28-2.35-.14-5.14,0-5.14-3.12,0-1.35.8-2.57,2.77-2.93.24-.03.48-.05.76-.05h4.84v2.41h-4.55c-.44,0-.73,0-1.03.14-.15.14-.29.43-.29.71,0,.43.15.57.59.71.29.14.59.14.88.14h1.32c.64,0,1.13.08,1.57.23.41.14,1.75.72,2.05,2.24.03.16.05.33.05.51,0,.85-.29,1.56-.88,2.13Z"></path></g><path class="cls-26" d="M953.12,10h92.45c3.57,0,6.47,2.82,6.47,6.31v57.65c0,3.48-2.9,6.31-6.47,6.31h-92.45c-3.57,0-6.47-2.82-6.47-6.31V16.31c0-3.48,2.9-6.31,6.47-6.31Z"></path><path class="cls-23" d="M960.19,56.57l.82-.08c.05.27.15.47.3.59.15.13.35.19.61.19.27,0,.47-.06.61-.17.14-.11.21-.24.21-.39,0-.1-.03-.18-.09-.25-.06-.07-.16-.13-.3-.18-.1-.03-.32-.09-.67-.18-.45-.11-.77-.24-.95-.4-.25-.22-.38-.49-.38-.82,0-.21.06-.4.18-.58.12-.18.29-.32.52-.41.23-.09.5-.14.82-.14.52,0,.92.11,1.18.34.26.22.4.52.42.9l-.84.03c-.04-.21-.11-.36-.23-.45-.12-.09-.3-.14-.53-.14s-.44.05-.57.15c-.09.06-.13.15-.13.25,0,.1.04.18.13.25.11.09.36.18.77.27.41.09.71.19.91.29.2.1.35.24.46.41.11.18.17.39.17.65,0,.23-.07.45-.2.66-.13.2-.32.36-.56.45-.24.1-.54.15-.91.15-.53,0-.93-.12-1.21-.36-.28-.24-.45-.59-.51-1.04"></path><path class="cls-23" d="M964.45,54.96h.8v2.94h-.8v-2.94ZM964.45,53.84h.8v.72h-.8v-.72Z"></path><path class="cls-23" d="M968.99,57.9h-.8v-1.5c0-.32-.02-.52-.05-.62-.03-.09-.09-.17-.17-.22-.08-.05-.17-.08-.28-.08-.14,0-.26.04-.37.11-.11.07-.18.17-.22.29-.04.12-.06.35-.06.68v1.33h-.8v-2.94h.74v.43c.26-.34.59-.5.99-.5.18,0,.34.03.48.09.15.06.26.14.33.24.07.1.13.21.16.33.03.12.04.3.04.52v1.83"></path><path class="cls-23" d="M970.61,56.37c0,.31.06.54.18.69.12.15.27.22.46.22.19,0,.36-.07.49-.22.13-.15.2-.37.2-.66s-.06-.53-.19-.68c-.13-.15-.29-.22-.48-.22s-.35.07-.47.22c-.12.15-.18.37-.18.67ZM969.9,58.09l.91.1c.02.11.05.19.11.23.08.06.2.09.36.09.21,0,.37-.03.47-.09.07-.04.12-.11.16-.2.02-.06.04-.18.04-.36v-.43c-.23.31-.53.47-.9.47-.41,0-.73-.17-.96-.5-.19-.26-.28-.59-.28-.99,0-.49.12-.87.37-1.13.24-.26.55-.39.91-.39s.68.16.92.48v-.41h.74v2.64c0,.35-.03.61-.09.78-.06.17-.14.31-.25.41-.11.1-.25.17-.43.23s-.4.08-.67.08c-.51,0-.88-.09-1.09-.26-.21-.17-.32-.39-.32-.65,0-.03,0-.06,0-.09Z"></path><path class="cls-23" d="M973.7,53.84h.8v4.06h-.8v-4.06Z"></path><path class="cls-23" d="M977.29,56.18c0-.23-.07-.4-.18-.52-.11-.12-.25-.18-.42-.18-.18,0-.32.06-.43.19-.11.13-.17.3-.17.51h1.2ZM977.25,56.97l.79.13c-.1.28-.26.5-.49.65-.22.15-.5.22-.83.22-.53,0-.92-.17-1.17-.5-.2-.27-.3-.61-.3-1.02,0-.49.13-.87.39-1.15.26-.28.59-.42.99-.42.45,0,.81.15,1.07.44.26.29.38.74.37,1.34h-2.01c0,.23.07.41.19.54.12.13.28.19.47.19.13,0,.23-.03.32-.1.09-.07.15-.17.2-.32Z"></path><path class="cls-23" d="M980.71,57.9v-4.06h3.08v.68h-2.24v.9h2.08v.68h-2.08v1.1h2.32v.68h-3.17"></path><path class="cls-23" d="M986.74,57.9v-.44c-.11.16-.25.28-.43.37-.18.09-.37.14-.57.14s-.39-.04-.55-.13c-.16-.09-.28-.21-.35-.37-.07-.16-.11-.37-.11-.65v-1.86h.8v1.35c0,.41.01.67.04.76.03.09.08.17.16.22.08.05.18.08.3.08.14,0,.26-.04.37-.11.11-.07.18-.16.22-.27.04-.11.06-.37.06-.79v-1.24h.8v2.94h-.74"></path><path class="cls-23" d="M989.25,57.9h-.8v-2.94h.74v.42c.13-.2.24-.33.34-.39.1-.06.22-.1.35-.1.18,0,.36.05.53.15l-.24.68c-.13-.08-.26-.13-.38-.13s-.21.03-.29.09c-.08.06-.14.17-.18.33-.04.16-.07.49-.07.99v.91"></path><path class="cls-23" d="M991.54,56.43c0,.29.07.52.21.67.14.16.32.23.53.23s.38-.08.53-.23c.14-.16.21-.38.21-.68s-.07-.51-.21-.67c-.14-.16-.32-.23-.53-.23s-.38.08-.53.23c-.14.16-.21.38-.21.67ZM990.73,56.39c0-.26.07-.51.2-.75.13-.24.32-.43.56-.56.24-.13.51-.19.8-.19.46,0,.83.14,1.12.43.29.29.44.66.44,1.1s-.15.82-.44,1.11c-.29.29-.67.44-1.11.44-.28,0-.54-.06-.79-.18-.25-.12-.44-.3-.57-.54-.13-.24-.2-.52-.2-.86Z"></path><path class="cls-23" d="M997.3,54.52v1.16h.46c.33,0,.55-.02.66-.06.11-.04.2-.11.26-.2.06-.09.09-.2.09-.32,0-.15-.04-.27-.13-.37-.09-.1-.2-.16-.34-.18-.1-.02-.3-.03-.6-.03h-.41ZM996.45,57.9v-4.06h1.35c.51,0,.84.02,1,.06.24.06.44.19.6.4.16.2.24.47.24.79,0,.25-.05.46-.14.63-.09.17-.21.3-.35.4-.14.1-.29.16-.44.19-.2.04-.49.06-.87.06h-.55v1.53h-.84Z"></path><path class="cls-23" d="M1002.16,56.49c-.1.03-.26.07-.49.12-.22.05-.37.09-.43.14-.1.07-.16.16-.16.28s.04.2.12.28c.08.08.19.12.32.12.14,0,.28-.05.41-.14.1-.07.16-.16.19-.26.02-.07.03-.19.03-.38v-.16ZM1001.09,55.85l-.72-.13c.08-.28.22-.5.42-.63.2-.14.49-.21.89-.21.36,0,.62.04.8.12.17.08.3.19.37.31.07.13.11.36.11.7v.91c0,.26,0,.45.03.57.03.12.07.25.14.4h-.79c-.02-.05-.05-.13-.08-.23-.01-.05-.02-.08-.03-.09-.14.13-.28.23-.44.29-.16.06-.32.1-.5.1-.31,0-.56-.08-.73-.25-.18-.16-.27-.37-.27-.62,0-.17.04-.31.12-.45.08-.13.2-.23.34-.3.15-.07.36-.13.64-.18.37-.07.63-.13.78-.19v-.08c0-.15-.04-.26-.11-.32-.08-.06-.22-.1-.43-.1-.14,0-.25.03-.33.08-.08.05-.14.15-.19.29Z"></path><path class="cls-23" d="M1003.52,54.96h.85l.72,2.09.71-2.09h.83l-1.26,3.35c-.07.17-.14.3-.2.39-.06.09-.14.16-.22.22-.08.06-.18.1-.3.13-.12.03-.26.05-.41.05s-.31-.02-.45-.05l-.07-.61c.13.02.24.04.34.04.19,0,.32-.05.41-.16.09-.11.16-.24.21-.41l-1.15-2.95"></path><path class="cls-23" d="M1007.26,54.96h.74v.4c.26-.32.58-.47.94-.47.19,0,.36.04.5.12.14.08.26.2.35.35.13-.16.28-.27.43-.35.15-.08.32-.12.49-.12.22,0,.41.04.56.13.15.09.27.22.34.39.05.13.08.33.08.61v1.88h-.8v-1.68c0-.29-.03-.48-.08-.57-.07-.11-.19-.17-.34-.17-.11,0-.22.03-.32.1-.1.07-.17.16-.21.29-.04.13-.07.33-.07.61v1.42h-.8v-1.61c0-.29-.01-.47-.04-.56-.03-.08-.07-.15-.13-.19-.06-.04-.14-.06-.24-.06-.12,0-.23.03-.33.1-.1.06-.17.16-.21.28-.04.12-.06.32-.06.61v1.43h-.8v-2.94"></path><path class="cls-23" d="M1014.46,56.18c0-.23-.07-.4-.18-.52-.11-.12-.25-.18-.42-.18-.18,0-.32.06-.43.19-.11.13-.17.3-.17.51h1.2ZM1014.42,56.97l.79.13c-.1.28-.26.5-.49.65-.22.15-.5.22-.83.22-.53,0-.92-.17-1.17-.5-.2-.27-.3-.61-.3-1.02,0-.49.13-.87.39-1.15.26-.28.59-.42.99-.42.45,0,.81.15,1.07.44.26.29.38.74.37,1.34h-2.01c0,.23.07.41.2.54.12.13.28.19.47.19.13,0,.23-.03.32-.1.09-.07.15-.17.2-.32Z"></path><path class="cls-23" d="M1018.83,57.9h-.8v-1.5c0-.32-.02-.52-.05-.62-.03-.09-.09-.17-.17-.22-.08-.05-.17-.08-.28-.08-.14,0-.26.04-.37.11-.11.07-.18.17-.23.29-.04.12-.06.35-.06.68v1.33h-.8v-2.94h.74v.43c.26-.34.59-.5.99-.5.18,0,.34.03.48.09.15.06.26.14.33.24s.13.21.16.33c.03.12.04.3.04.52v1.83"></path><path class="cls-23" d="M1021.19,54.96v.62h-.55v1.19c0,.24,0,.38.02.42,0,.04.03.07.07.1.04.03.08.04.13.04.07,0,.18-.03.32-.07l.07.6c-.18.08-.39.12-.63.12-.14,0-.27-.02-.39-.07-.11-.05-.2-.11-.25-.18-.05-.07-.09-.18-.11-.3-.02-.09-.03-.27-.03-.55v-1.29h-.36v-.62h.36v-.59l.8-.46v1.05h.55"></path><path class="cls-23" d="M1021.64,57.07l.8-.12c.03.15.1.26.21.34.1.08.25.12.44.12.21,0,.36-.04.47-.11.07-.05.11-.12.11-.21,0-.06-.02-.11-.06-.15-.04-.04-.13-.07-.27-.1-.65-.14-1.06-.27-1.23-.38-.24-.16-.36-.38-.36-.66,0-.26.1-.47.31-.64.21-.17.53-.26.97-.26s.72.07.93.2c.2.13.34.32.42.58l-.75.14c-.03-.11-.09-.2-.19-.26-.09-.06-.22-.09-.39-.09-.21,0-.37.03-.46.09-.06.04-.09.09-.09.16,0,.06.03.1.08.14.07.05.32.13.75.22.43.09.73.21.9.35.17.14.25.33.25.58,0,.27-.12.5-.35.7-.23.2-.57.29-1.03.29-.41,0-.74-.08-.98-.24-.24-.16-.4-.38-.47-.66"></path><path class="cls-23" d="M1029.34,56.3l-.58-1.51-.56,1.51h1.15ZM1030.89,57.9h-.91l-.36-.92h-1.68l-.34.92h-.89l1.61-4.06h.89l1.68,4.06Z"></path><path class="cls-23" d="M1032.26,57.9h-.8v-2.94h.74v.42c.13-.2.24-.33.34-.39.1-.06.22-.1.35-.1.18,0,.36.05.53.15l-.24.68c-.14-.08-.26-.13-.38-.13s-.21.03-.29.09c-.08.06-.14.17-.18.33-.04.16-.07.49-.07.99v.91"></path><path class="cls-23" d="M1035.74,56.18c0-.23-.07-.4-.18-.52-.11-.12-.25-.18-.42-.18-.18,0-.32.06-.43.19-.11.13-.17.3-.17.51h1.2ZM1035.69,56.97l.79.13c-.1.28-.26.5-.49.65-.22.15-.5.22-.83.22-.53,0-.92-.17-1.17-.5-.2-.27-.3-.61-.3-1.02,0-.49.13-.87.39-1.15.26-.28.59-.42.99-.42.45,0,.81.15,1.07.44.26.29.38.74.37,1.34h-2.01c0,.23.07.41.19.54.12.13.28.19.47.19.13,0,.23-.03.32-.1.09-.07.15-.17.2-.32Z"></path><path class="cls-23" d="M1039.01,56.49c-.1.03-.26.07-.49.12-.22.05-.37.09-.43.14-.1.07-.16.16-.16.28s.04.2.12.28c.08.08.19.12.32.12.14,0,.28-.05.41-.14.1-.07.16-.16.19-.26.02-.07.03-.19.03-.38v-.16ZM1037.94,55.85l-.72-.13c.08-.28.22-.5.42-.63.2-.14.49-.21.89-.21.36,0,.62.04.8.12.17.08.3.19.37.31.07.13.11.36.11.7v.91c0,.26,0,.45.03.57.03.12.07.25.14.4h-.79c-.02-.05-.05-.13-.08-.23-.01-.05-.02-.08-.03-.09-.14.13-.28.23-.44.29-.16.06-.32.1-.5.1-.31,0-.56-.08-.73-.25-.18-.16-.27-.37-.27-.62,0-.17.04-.31.12-.45.08-.13.2-.23.34-.3.15-.07.36-.13.64-.18.37-.07.63-.13.78-.19v-.08c0-.15-.04-.26-.11-.32-.08-.06-.22-.1-.43-.1-.14,0-.25.03-.33.08-.08.05-.14.15-.19.29Z"></path><path class="cls-23" d="M977.89,37.88h-5.46c0-.87-.11-1.46-.31-1.76-.32-.44-1.22-.66-2.69-.66s-2.37.13-2.83.38c-.46.26-.69.81-.69,1.67,0,.77.2,1.28.61,1.53.29.17.68.28,1.16.31l1.1.08c2.36.15,3.83.26,4.42.32,1.87.18,3.22.67,4.06,1.45.66.61,1.05,1.41,1.18,2.4.07.59.11,1.26.11,2,0,1.71-.17,2.96-.5,3.76-.61,1.46-1.97,2.38-4.1,2.76-.89.16-2.25.25-4.08.25-3.06,0-5.19-.18-6.39-.53-1.48-.44-2.45-1.32-2.92-2.65-.26-.74-.39-1.98-.39-3.71h5.46c0,.19,0,.34,0,.44,0,.92.27,1.52.82,1.78.38.18.83.28,1.36.29h2.01c1.02,0,1.68-.05,1.96-.15.5-.19.83-.5.99-.93.08-.26.13-.61.13-1.02,0-.94-.35-1.51-1.05-1.71-.26-.08-1.48-.19-3.65-.34-1.74-.12-2.96-.24-3.64-.35-1.79-.33-2.98-1-3.57-2.01-.52-.86-.78-2.17-.78-3.92,0-1.33.14-2.4.42-3.2.28-.8.74-1.41,1.37-1.83.92-.64,2.1-1.02,3.53-1.13,1.19-.1,2.52-.15,3.97-.15,2.29,0,3.92.13,4.9.38,2.38.62,3.56,2.37,3.56,5.23,0,.23-.02.59-.05,1.06"></path><path class="cls-23" d="M1007.76,41.94h3.66c1.16-.04,1.87-.13,2.12-.26.35-.19.58-.56.7-1.12.07-.37.11-.92.11-1.66,0-.9-.07-1.57-.22-2-.21-.61-.72-.98-1.52-1.12-.16-.02-.54-.03-1.14-.03h-3.71v6.19ZM1001.9,52.35v-21.25h10.93c1.5,0,2.64.12,3.43.36,1.8.55,3,1.67,3.62,3.37.32.89.48,2.23.48,4.03,0,2.16-.18,3.71-.53,4.65-.7,1.87-2.14,2.94-4.32,3.22-.26.04-1.35.08-3.27.11l-.97.03h-3.5v5.49h-5.87Z"></path><path class="cls-23" d="M1031.72,44.54l-2.75-9.21-2.67,9.21h5.42ZM1032.88,48.68h-7.85l-1.05,3.67h-6.07l6.55-21.25h8.85l6.63,21.25h-5.94l-1.12-3.67Z"></path><path class="cls-21" d="M993.8,34.09c2.42,0,4.58,1.09,6,2.79l1.26-2.64c-1.98-1.82-4.67-2.95-7.64-2.95-4.62,0-8.58,2.72-10.2,6.58h-2.47l-1.46,3.04h3.17c-.02.28-.04.56-.04.85,0,.35.02.69.05,1.03h-1.59l-1.46,3.04h3.86c1.67,3.76,5.58,6.39,10.13,6.39,2.29,0,4.42-.67,6.18-1.81v-3.73c-1.42,1.57-3.49,2.57-5.81,2.57-2.7,0-5.08-1.36-6.47-3.42h8.09l1.46-3.04h-10.73c-.06-.37-.08-.74-.08-1.12,0-.26.01-.51.04-.77h11.68l1.46-3.04h-12.13c1.34-2.26,3.84-3.77,6.69-3.77"></path></svg>