<svg width="18" height="18" viewBox="0 0 18 18" fill="none" xmlns="http://www.w3.org/2000/svg">
<g clip-path="url(#clip0_856_3652)">
<path d="M16.3185 8.35673L13.0922 7.14771V3.52398C13.0922 3.023 12.7816 2.57546 12.3107 2.39845L8.97082 1.14601C8.70029 1.04248 8.39971 1.04248 8.12584 1.14601L4.786 2.39845C4.31508 2.57546 4.00447 3.023 4.00447 3.52398V7.14771L0.778184 8.35673C0.310605 8.53374 0 8.98128 0 9.48226V13.1594C0 13.6136 0.257168 14.0311 0.664629 14.2349L4.00447 15.9048C4.3418 16.0751 4.74258 16.0751 5.0799 15.9048L8.55 14.1681L12.0201 15.9048C12.3574 16.0751 12.7582 16.0751 13.0955 15.9048L16.4354 14.2349C16.8428 14.0311 17.1 13.6136 17.1 13.1594V9.48226C17.1 8.98128 16.7894 8.53374 16.3185 8.35673ZM11.9566 7.17443L9.11777 8.23984V5.96206L11.9566 4.72632V7.17443ZM5.14336 3.47722L8.55 2.2014L11.9566 3.47722V3.49726L8.55 4.87996L5.14336 3.49726V3.47722ZM7.94883 13.1995L5.10996 14.6189V11.9771L7.94883 10.6813V13.1995ZM7.94883 9.45888L4.54219 10.8416L1.13555 9.45888V9.43884L4.54219 8.16302L7.94883 9.43884V9.45888ZM15.9645 13.1995L13.1256 14.6189V11.9771L15.9645 10.6813V13.1995ZM15.9645 9.45888L12.5578 10.8416L9.15117 9.45888V9.43884L12.5578 8.16302L15.9645 9.43884V9.45888Z" fill="#0D4B4D"/>
</g>
<defs>
<clipPath id="clip0_856_3652">
<rect width="17.1" height="17.1" fill="white"/>
</clipPath>
</defs>
</svg>
