<svg width="17" height="17" viewBox="0 0 17 17" fill="none" xmlns="http://www.w3.org/2000/svg">
<g clip-path="url(#clip0_856_3643)">
<path d="M8.0998 0.253906C3.76504 0.253906 0.25293 3.76602 0.25293 8.10078C0.25293 12.4355 3.76504 15.9477 8.0998 15.9477C12.4346 15.9477 15.9467 12.4355 15.9467 8.10078C15.9467 3.76602 12.4346 0.253906 8.0998 0.253906ZM14.4279 8.10078C14.4279 8.81269 14.3045 9.4993 14.0862 10.1384H13.4439C13.3079 10.1384 13.1781 10.0846 13.0832 9.98656L12.0707 8.95508C11.9283 8.80953 11.9283 8.57223 12.0739 8.42668L12.4694 8.03117V7.7559C12.4694 7.66098 12.4314 7.56922 12.365 7.50277L12.0675 7.20535C12.0011 7.13891 11.9093 7.10094 11.8144 7.10094H11.3082C11.112 7.10094 10.9506 6.93957 10.9506 6.7434C10.9506 6.64848 10.9886 6.55672 11.055 6.49027L11.3525 6.19285C11.4189 6.12641 11.5107 6.08844 11.6056 6.08844H12.6181C12.8143 6.08844 12.9756 5.92707 12.9756 5.7309V5.43348C12.9756 5.2373 12.8143 5.07594 12.6181 5.07594H11.4569C11.1784 5.07594 10.9506 5.30375 10.9506 5.58219V5.72457C10.9506 5.94289 10.8114 6.1359 10.6057 6.20551L9.6059 6.53773C9.50148 6.57254 9.43187 6.66746 9.43187 6.7782V6.84781C9.43187 6.98703 9.31797 7.10094 9.17875 7.10094H8.6725C8.53328 7.10094 8.41937 6.98703 8.41937 6.84781C8.41937 6.70859 8.30547 6.59469 8.16625 6.59469H8.06816C7.97324 6.59469 7.88465 6.64848 7.84035 6.73391L7.54293 7.32559C7.4575 7.49644 7.28348 7.60402 7.09047 7.60402H6.39121C6.11277 7.60402 5.88496 7.37621 5.88496 7.09777V6.29727C5.88496 6.16437 5.93875 6.03465 6.03367 5.93973L6.66965 5.30375C6.8152 5.1582 6.89746 4.95887 6.89746 4.75004C6.89746 4.64246 6.96707 4.54437 7.07148 4.50957L8.33711 4.08875C8.3909 4.06977 8.43836 4.04129 8.47633 4.00332L9.3243 3.15535C9.39074 3.08891 9.42871 2.99715 9.42871 2.90223C9.42871 2.70605 9.26734 2.54469 9.07117 2.54469H8.41621L7.90996 3.05094V3.30406C7.90996 3.44328 7.79605 3.55719 7.65684 3.55719H7.15059C7.01137 3.55719 6.89746 3.44328 6.89746 3.30406V2.67125C6.89746 2.59215 6.93543 2.51621 6.99871 2.46875L7.91312 1.78215C7.97324 1.77898 8.03336 1.77266 8.09348 1.77266C11.5898 1.77266 14.4279 4.61082 14.4279 8.10078ZM4.36937 4.7184C4.36937 4.62348 4.40734 4.53172 4.47379 4.46527L5.27746 3.6616C5.34391 3.59516 5.43566 3.55719 5.53059 3.55719C5.72676 3.55719 5.88812 3.71855 5.88812 3.91473V4.42098C5.88812 4.5159 5.85016 4.60766 5.78371 4.6741L5.48629 4.97152C5.41984 5.03797 5.32809 5.07594 5.23316 5.07594H4.72691C4.53074 5.07594 4.36937 4.91457 4.36937 4.7184ZM8.41937 14.4131V14.1884C8.41937 13.91 8.19156 13.6822 7.91312 13.6822H7.27398C6.93226 13.6822 6.42918 13.5145 6.15391 13.3088L5.45148 12.7804C5.08762 12.5083 4.87562 12.0812 4.87562 11.6287V10.8725C4.87562 10.3662 5.14141 9.89797 5.57488 9.63852L6.93227 8.82535C7.15691 8.69246 7.4132 8.61969 7.67266 8.61969H8.65984C9.00473 8.61969 9.33695 8.74308 9.59641 8.96457L10.9633 10.1384H11.5423C11.8112 10.1384 12.0675 10.246 12.2574 10.4359L12.8048 10.9832C12.9123 11.0908 13.0611 11.1509 13.2129 11.1509H13.6369C12.6118 13.0146 10.669 14.2992 8.41937 14.4131Z" fill="#074139"/>
</g>
<defs>
<clipPath id="clip0_856_3643">
<rect width="16.2" height="16.2" fill="white"/>
</clipPath>
</defs>
</svg>
