<svg width="16" height="16" viewBox="0 0 16 16" fill="none" xmlns="http://www.w3.org/2000/svg">
<g clip-path="url(#clip0_856_3634)">
<path d="M14.9175 9.9443H14.535V7.36003C14.535 7.05642 14.4131 6.76477 14.1979 6.54961L11.8097 4.16137C11.5945 3.94622 11.3029 3.8243 10.9993 3.8243H9.945V2.6768C9.945 2.04328 9.43102 1.5293 8.7975 1.5293H2.6775C2.04398 1.5293 1.53 2.04328 1.53 2.6768V3.8243H0.19125C0.0860625 3.8243 0 3.91036 0 4.01555V4.39805C0 4.50323 0.0860625 4.5893 0.19125 4.5893H6.69375C6.79894 4.5893 6.885 4.67536 6.885 4.78055V5.16305C6.885 5.26823 6.79894 5.3543 6.69375 5.3543H0.95625C0.851062 5.3543 0.765 5.44036 0.765 5.54555V5.92805C0.765 6.03323 0.851062 6.1193 0.95625 6.1193H5.92875C6.03394 6.1193 6.12 6.20536 6.12 6.31055V6.69305C6.12 6.79823 6.03394 6.8843 5.92875 6.8843H0.19125C0.0860625 6.8843 0 6.97036 0 7.07555V7.45805C0 7.56323 0.0860625 7.6493 0.19125 7.6493H5.16375C5.26894 7.6493 5.355 7.73536 5.355 7.84055V8.22305C5.355 8.32823 5.26894 8.4143 5.16375 8.4143H1.53V11.4743C1.53 12.7413 2.55797 13.7693 3.825 13.7693C5.09203 13.7693 6.12 12.7413 6.12 11.4743H9.18C9.18 12.7413 10.208 13.7693 11.475 13.7693C12.742 13.7693 13.77 12.7413 13.77 11.4743H14.9175C15.1279 11.4743 15.3 11.3022 15.3 11.0918V10.3268C15.3 10.1164 15.1279 9.9443 14.9175 9.9443ZM3.825 12.6218C3.19148 12.6218 2.6775 12.1078 2.6775 11.4743C2.6775 10.8408 3.19148 10.3268 3.825 10.3268C4.45852 10.3268 4.9725 10.8408 4.9725 11.4743C4.9725 12.1078 4.45852 12.6218 3.825 12.6218ZM11.475 12.6218C10.8415 12.6218 10.3275 12.1078 10.3275 11.4743C10.3275 10.8408 10.8415 10.3268 11.475 10.3268C12.1085 10.3268 12.6225 10.8408 12.6225 11.4743C12.6225 12.1078 12.1085 12.6218 11.475 12.6218ZM13.3875 7.6493H9.945V4.9718H10.9993L13.3875 7.36003V7.6493Z" fill="#074139"/>
</g>
<defs>
<clipPath id="clip0_856_3634">
<rect width="15.3" height="15.3" fill="white"/>
</clipPath>
</defs>
</svg>
